<?xml version="1.0" encoding="utf-8"?>
<!-- Generator: Adobe Illustrator 27.8.1, SVG Export Plug-In . SVG Version: 6.00 Build 0)  -->
<svg version="1.1" id="Camada_1" xmlns="http://www.w3.org/2000/svg" xmlns:xlink="http://www.w3.org/1999/xlink" x="0px" y="0px"
	 viewBox="0 0 400 400" style="enable-background:new 0 0 400 400;" xml:space="preserve">
<style type="text/css">
	.st0{fill:#FFFFFF;}
</style>
<path class="st0" d="M392.5,188c0,8,0,16,0,24c-0.89,6.66-1.58,13.36-2.71,19.99c-6.73,39.42-24.01,73.56-51.9,102.13
	c-28.74,29.44-63.47,47.81-104,54.96c-6.97,1.23-14.02,1.96-21.03,2.92c-7.98,0-15.97,0-23.95,0c-1.08-0.22-2.16-0.46-3.25-0.66
	c-12.36-2.21-25.03-3.36-37.04-6.8C53.69,357.41-4.53,264.33,12.11,167.01C25.67,87.62,88.37,24.74,167.85,10.91
	C174.82,9.7,181.88,8.96,188.9,8c7.98,0,15.97,0,23.95,0c0.96,0.21,1.91,0.54,2.89,0.61c26.21,1.91,51.07,8.82,74.1,21.4
	c54.52,29.8,87.88,75.35,99.67,136.53C390.88,173.62,391.52,180.84,392.5,188z M374.92,177.88
	c-9.61-83.46-82.75-155.55-176.99-153.81C100.43,25.87,34.3,103.26,27,177.72c2.37,0.44,4.77,0.88,7.35,1.35
	c0.78-4.44,1.32-8.65,2.27-12.75c14.7-63.33,52.93-105.5,114.16-126.64c15.89-5.48,32.49-7.6,49.3-7.65
	c5.73-0.02,9.53,4.18,8.6,9.28c-0.74,4.07-3.59,6.23-8.25,6.66c-9.92,0.93-20.07,0.92-29.69,3.17
	c-60.7,14.21-99.75,51.58-116.93,111.66c-1.73,6.04-2.48,12.35-3.65,18.33c0.87,0.44,1.08,0.62,1.31,0.65
	c25.54,2.61,51.08,5.17,76.61,7.86c2.78,0.29,3.53-0.84,4.29-3.22c9.72-30.27,37-50.3,68.38-50.36c31.39-0.06,58.77,19.9,68.5,50.15
	c0.9,2.79,2,3.7,4.92,3.4c23.8-2.45,47.64-4.61,71.42-7.2C355.35,181.36,365.01,179.44,374.92,177.88z M375.17,218.04
	c-1.38,0.24-2.48,0.6-3.58,0.6c-3.18,0.01-4.54,1.28-4.75,4.68c-0.25,4.08-1.22,8.14-2.07,12.17
	c-16.13,76.34-84.55,132.18-162.33,132.49c-5.71,0.02-9.4-2.98-9.54-7.77c-0.14-4.71,3.44-7.84,9.15-8.19
	c6.59-0.4,13.22-0.6,19.76-1.47c59.83-8,110.33-52.69,125.63-111.12c1.46-5.59,2.43-11.31,3.71-17.36c-1.48,0.14-2.08,0.2-2.67,0.26
	c-25.18,2.5-50.35,5.07-75.54,7.43c-2.77,0.26-3.94,1.1-4.93,3.73c-10.3,27.41-35.93,45.53-65.55,46.55
	c-28.05,0.96-55.27-15.87-66.69-42.36c-2.81-6.52-6.35-7.98-12.74-8.52c-23.96-2.02-47.88-4.66-71.79-7.28
	c-8.23-0.9-16.39-2.46-24.64-3.73c5.24,75.58,72.35,157.74,174.25,157.78C302.38,375.95,369.75,294.23,375.17,218.04z
	 M200.64,263.93c30.87,0.14,56.06-24.89,56.16-55.8c0.1-30.66-24.95-55.98-55.51-56.13c-30.89-0.15-56.08,24.73-56.34,55.67
	C144.68,238.46,169.76,263.79,200.64,263.93z M272.8,213.69c34.99-2.23,69.44-5.91,103.83-12.27c-0.14-2.71-0.25-4.99-0.33-6.54
	c-34.72,3.97-69.03,7.89-103.5,11.83C272.8,208.61,272.8,210.83,272.8,213.69z M25.4,201.47c34.38,6.31,68.82,10.03,103.45,12.16
	c0-2.92,0-5.25,0-7.57c-17.45-1.6-34.73-2.87-51.92-4.84c-17.14-1.96-34.2-4.63-51.53-7.01C25.4,196.56,25.4,198.78,25.4,201.47z"/>
<path class="st0" d="M240.72,207.91c0.05,22.11-17.82,40.08-39.84,40.08c-22.02,0-39.9-17.99-39.83-40.09
	c0.06-21.96,17.71-39.73,39.66-39.93C222.59,167.77,240.67,185.82,240.72,207.91z M200.85,184.09
	c-13.29,0.01-23.97,10.73-23.92,24.02c0.05,13.04,10.73,23.78,23.78,23.92c13.09,0.14,24.08-10.77,24.11-23.96
	C224.85,194.79,214.15,184.08,200.85,184.09z"/>
</svg>
